<?xml version="1.0" encoding="utf-8"?>
<!-- Generator: Adobe Illustrator 19.0.0, SVG Export Plug-In . SVG Version: 6.00 Build 0)  -->
<svg version="1.1" id="Layer_1" xmlns="http://www.w3.org/2000/svg" xmlns:xlink="http://www.w3.org/1999/xlink" x="0px" y="0px"
	 viewBox="-255 346.9 100.1 100.1" style="enable-background:new -255 346.9 100.1 100.1;" xml:space="preserve">
<style type="text/css">
	.st0{opacity:0.15;}
	.st1{fill:#AEAEAF;}
</style>
<g id="XMLID_331_" class="st0">
	<g id="XMLID_16_">
		<path id="XMLID_17_" class="st1" d="M-231.6,428.9L-231.6,428.9c-2.1-1.5-2.5-4.4-1-6.5l12-16.6c1.5-2.1,4.4-2.5,6.5-1l0,0
			c2.1,1.5,2.5,4.4,1,6.5l-12,16.6C-226.6,429.9-229.5,430.4-231.6,428.9z"/>
		<path id="XMLID_14_" class="st1" d="M-181.2,403.6c-8.1,11.1-23.6,13.6-34.8,5.5s-13.6-23.6-5.5-34.8c8.1-11.1,23.6-13.6,34.8-5.5
			S-173.1,392.4-181.2,403.6z M-189.4,372.5c-9.1-6.6-21.7-4.6-28.3,4.5s-4.6,21.7,4.5,28.3c9.1,6.6,21.7,4.6,28.3-4.5
			S-180.3,379.1-189.4,372.5z"/>
	</g>
</g>
</svg>
